<?xml version="1.0" encoding="utf-8"?>
<!-- Generator: Adobe Illustrator 27.5.0, SVG Export Plug-In . SVG Version: 6.00 Build 0)  -->
<svg version="1.1" id="Layer_1" xmlns="http://www.w3.org/2000/svg" xmlns:xlink="http://www.w3.org/1999/xlink" x="0px" y="0px"
	 viewBox="0 0 2000 2000" style="enable-background:new 0 0 2000 2000;" xml:space="preserve">
<rect style="fill:#FFFFFF;" width="2000" height="2000"/>
<g id="XMLID_2_">
	<path style="fill:#AC4252;" d="M1236.617,1493.95c46.804,181.758,163.234,260.93,136.667,403.91l-313.183,0.659
		C1198.478,1781.764,1167.286,1846.824,1236.617,1493.95z"/>
	<path style="fill:#AC4252;" d="M972.337,1898.683L337.904,1900c0,0,2.306-28.711,2.306-81.999
		c0-121.743-15.297-311.275,100.112-354.019c25.311-9.158,298.838-107.715,323.722-129.423
		C884.682,1857.327,797.762,1751.606,972.337,1898.683z"/>
	<path class='skinTone' style="fill:#fff000;" d="M1016.138,1128.406c77.455,0,116.544-39.223,162.188-76.402
		c-17.601,85.494-23.694,172.376,41.659,245.672c0,71.971-2.427,120.042,16.632,196.275
		c-69.399,353.222-38.313,287.96-176.516,404.568l-87.764,0.164c-147.052-123.89-103.782-34.034-207.801-561.982
		c84.471-50.55,113.616-145.724,97.48-243.532c-1.483-8.562-4.776-24.369-8.233-41.165
		C899.083,1088.901,938.39,1128.406,1016.138,1128.406z"/>
	<path class='skinTone' style="fill:#fff000;" d="M1137.492,1085.265c-69.94,57.191-171.792,57.857-242.874,0
		c-114.531-93.289-179.42-123.653-174.703-271.03c6.711-251.671-4.399-187.417,58.619-344.962
		c30.2-75.501,81.635-141.316,150.004-189.359c89.636-32.594,128.871,9.016,373.12,202.86c1.733,16.462,0.651-3.46,11.361,352.042
		C1316.692,958.402,1233.04,1007.439,1137.492,1085.265z"/>
	<path style="fill:#AC4252;" d="M1662.096,1897.202l-179.479,0.328c103.571-108.84,146.219-263.62,110.323-411.812
		C1690.802,1577.192,1648.991,1743.974,1662.096,1897.202z"/>
	<path class='skinTone' style="fill:#fff000;" d="M724.524,655.01l-3.293,109.826c-17.537-4.817-30.878-6.639-37.377-24.368
		c-3.43-9.256-24.535-62.997-24.535-71.957c0-25.43,26.544-39.93,46.433-26.346L724.524,655.01z"/>
	<path class='skinTone' style="fill:#fff000;" d="M725.513,625.699c0,0.255-0.98,29.053-0.989,29.31l-18.772-12.845
		c-25.593-17.478-55.226,11.146-44.293,37.872c29.634,79.964,22.3,74.505,59.772,84.799l-1.317,49.399
		c-8.658,3.968-17.433,3.55-24.865-0.166c-36.73-18.698-35.796-42.037-68.662-168.612c-11.401-45.601,42.119-77.114,76.402-47.256
		C721.937,621.603,716.675,615.276,725.513,625.699z"/>
	<path style="fill:#4A241B;" d="M1586.683,1462.334c-41.948-146.954-70.852-203.264-74.098-285.19
		c0,0,1.978-427.621-106.534-735.206c-94.68-267.571-212.575-314.336-355.17-336.729c-46.435-7.246-93.693-8.563-138.15,6.752
		c-63.37,43.198-218.32,131.05-264.114,346.938c-107.674,506.626-69.347,240.358-132.552,969.517
		c68.728-18.722,223.032-72.094,247.978-93.857l0.492,2.14c84.471-50.551,113.616-145.723,97.48-243.531
		c-1.483-8.563-4.776-24.37-8.233-41.165c-74.562-60.65-138.406-96.113-133.869-237.768c-8.656,3.968-17.435,3.55-24.863-0.166
		c-36.732-18.698-35.8-42.037-68.664-168.612c-11.401-45.601,42.121-77.114,76.402-47.258
		c19.147,23.403,13.885,17.074,22.723,27.499c0-31.02,8.684-45.587,53.02-156.428c30.196-75.49,81.633-141.316,150.004-189.357
		c89.636-32.596,128.871,9.016,373.12,202.86c1.734,16.496,0.651-3.459,11.361,352.042c3.588,120.733-82.22,174.506-134.691,217.186
		c-17.787,86.366-23.218,172.913,41.657,245.672c0,219.225,25.554,243.01,132.882,455.777
		c22.393,44.788,29.475,95.668,20.417,144.407l109.334-0.328C1591.816,1782.778,1632.964,1617.666,1586.683,1462.334z"/>
	<path style="fill:#4A241B;" d="M610.745,1399.93c-3.02,1.171-92.264,35.859-95.338,36.883l0.658-8.397
		C546.6,1420.088,577.476,1412.66,610.745,1399.93z"/>
</g>
</svg>
